#!OML:ASF H:\Terrain\Patient Classification 1\Walking\liu\liu.ASF
:FULLY-SPECIFIED
:DEGREES
16
root 7.51704 15.8027 -32.1201 9.05833 -6.37993 -4.52767
lowerback -3.25545 2.44453 0.357966
upperback -0.374527 3.20131 3.13197
thorax 1.2788 1.59718 3.15226
lowerneck -20.9772 -4.91131 -13.46
upperneck 16.9036 -5.57461 13.5587
head 9.58447 -2.01631 6.22002
rclavicle 2.95195e-014 -2.14687e-014
rhumerus -26.1543 25.8027 -82.4008
rradius 54.65
rwrist -27.0038
rhand -32.048 -17.0949
rfingers 7.12502
rthumb -5.29503 -47.0088
lclavicle 2.95195e-014 -2.14687e-014
lhumerus -57.8039 -9.74633 96.5651
lradius 34.929
lwrist 12.1026
lhand -9.42569 -23.5627
lfingers 7.12502
lthumb 16.5366 5.7527
rfemur -0.650532 7.08254 28.7517
rtibia 19.1744
rfoot -24.3999 1.38141
rtoes -10.334
lfemur -45.7107 8.61912 -15.787
ltibia 30.5637
lfoot -14.1595 11.0249
ltoes -10.838
17
root 7.54151 15.767 -31.9241 8.86694 -5.95359 -4.72196
lowerback -3.06313 2.34955 0.727416
upperback -0.308685 3.064 3.1312
thorax 1.2653 1.52968 2.9319
lowerneck -20.8541 -4.90923 -13.5097
upperneck 16.7263 -5.60572 13.781
head 9.5154 -2.01475 6.3002
rclavicle -3.926e-015 -1.63003e-014
rhumerus -25.8269 26.1523 -82.3566
rradius 55.0598
rwrist -27.0918
rhand -32.598 -26.3509
rfingers 7.12502
rthumb -5.82612 -56.2509
lclavicle -3.926e-015 -1.63003e-014
lhumerus -58.2813 -9.56411 96.3555
lradius 34.8852
lwrist 12.5528
lhand -9.4635 -22.4894
lfingers 7.12502
lthumb 16.5002 6.82897
rfemur 0.836888 6.80902 28.9843
rtibia 18.0639
rfoot -24.0711 1.34546
rtoes -11.3109
lfemur -45.7643 7.50967 -14.9698
ltibia 28.4922
lfoot -13.5543 10.5911
ltoes -11.5144
18
root 7.56754 15.7287 -31.727 8.90277 -5.97295 -5.10704
lowerback -3.1608 2.41603 1.24501
upperback -0.209593 3.12733 3.16827
thorax 1.44461 1.56251 2.69122
lowerneck -20.8404 -4.91169 -13.4678
upperneck 16.5559 -5.62503 13.8575
head 9.45877 -2.01334 6.31241
rclavicle -1.74931e-014 -2.70347e-014
rhumerus -25.3795 26.5955 -82.3118
rradius 55.3214
rwrist -27.861
rhand -31.5035 -12.3997
rfingers 7.12502
rthumb -4.76932 -42.3261
lclavicle -1.74931e-014 -2.70347e-014
lhumerus -58.4681 -9.09273 95.8318
lradius 34.6942
lwrist 12.9305
lhand -8.98682 -22.1486
lfingers 7.12502
lthumb 16.9591 7.13099
rfemur 2.07475 6.92068 29.3203
rtibia 16.9731
rfoot -23.846 1.39066
rtoes -11.0873
lfemur -45.8614 6.45389 -13.6971
ltibia 26.5427
lfoot -13.8422 10.7016
ltoes -11.951
19
root 7.5909 15.7053 -31.5291 9.11509 -6.28998 -5.49525
lowerback -3.31927 2.61091 1.63957
upperback -0.236166 3.36666 3.23675
thorax 1.51586 1.68403 2.55921
lowerneck -20.6809 -4.93025 -13.3058
upperneck 16.3399 -5.67451 13.7387
head 9.35403 -2.04362 6.2246
rclavicle -3.03147e-014 6.36111e-015
rhumerus -25.0351 26.8717 -82.225
rradius 55.5804
rwrist -28.5594
rhand -31.3387 -11.9756
rfingers 7.12502
rthumb -4.61018 -41.9054
lclavicle -3.03147e-014 6.36111e-015
lhumerus -58.8025 -8.2584 95.0273
lradius 34.4273
lwrist 12.9472
lhand -7.92831 -22.7232
lfingers 7.12502
lthumb 17.9778 6.46591
rfemur 3.2976 6.76529 29.5337
rtibia 15.8463
rfoot -23.6435 1.37735
rtoes -12.9979
lfemur -45.9525 5.68991 -12.4244
ltibia 24.6439
lfoot -13.6184 11.0935
ltoes -13.0713
20
root 7.61213 15.6806 -31.3316 9.31092 -6.57392 -5.64311
lowerback -3.42677 2.795 1.72684
upperback -0.306052 3.60665 3.28112
thorax 1.49915 1.80454 2.57052
lowerneck -20.4804 -5.007 -13.2738
upperneck 16.1159 -5.78227 13.6792
head 9.25445 -2.10501 6.17262
rclavicle 2.3556e-014 6.75868e-015
rhumerus -24.6995 26.7388 -81.8984
rradius 55.8573
rwrist -28.1682
rhand -31.8518 -20.7491
rfingers 7.12502
rthumb -5.10566 -50.6676
lclavicle 2.3556e-014 6.75868e-015
lhumerus -59.0254 -7.35861 94.2627
lradius 33.7679
lwrist 12.2202
lhand -7.68706 -23.2971
lfingers 7.12502
lthumb 18.2099 5.8705
rfemur 4.53563 6.11171 29.3666
rtibia 14.6384
rfoot -23.1825 1.8943
rtoes -15.0072
lfemur -46.0544 4.93485 -11.4575
ltibia 22.9906
lfoot -12.6751 11.7468
ltoes -13.4605
21
root 7.63167 15.6503 -31.1347 9.31231 -6.84121 -5.65837
lowerback -3.42292 2.97312 1.7363
upperback -0.271534 3.84311 3.26254
thorax 1.52702 1.92275 2.55793
lowerneck -20.3171 -5.10275 -13.6672
upperneck 15.9536 -5.89786 14.1215
head 9.21683 -2.14487 6.38111
rclavicle -3.1408e-014 -3.02153e-014
rhumerus -24.4053 26.6165 -81.569
rradius 56.2343
rwrist -28.0236
rhand -32.0502 -26.667
rfingers 7.12502
rthumb -5.2972 -56.5808
lclavicle -3.1408e-014 -3.02153e-014
lhumerus -58.9986 -6.64752 93.5594
lradius 32.9726
lwrist 11.12
lhand -7.83329 -23.4162
lfingers 7.12502
lthumb 18.0692 5.76448
rfemur 5.9395 5.7557 29.1218
rtibia 13.2684
rfoot -22.6702 2.40285
rtoes -15.5045
lfemur -46.0431 4.09596 -10.546
ltibia 21.7114
lfoot -12.2867 12.55
ltoes -11.2668
22
root 7.64675 15.627 -30.9355 9.19128 -7.21017 -5.99679
lowerback -3.2978 3.15946 1.94942
upperback -0.137406 4.08161 3.36596
thorax 1.59498 2.04274 2.5543
lowerneck -20.2243 -5.13646 -14.0706
upperneck 15.7592 -5.90427 14.5312
head 9.1635 -2.13558 6.5952
rclavicle 5.56597e-015 -1.82882e-014
rhumerus -24.1052 26.7401 -81.3654
rradius 56.5882
rwrist -28.4962
rhand -32.5117 -27.7413
rfingers 7.12502
rthumb -5.74283 -57.6435
lclavicle 5.56597e-015 -1.82882e-014
lhumerus -58.9461 -6.04354 92.9838
lradius 32.3308
lwrist 10.4122
lhand -7.60099 -23.2545
lfingers 7.12502
lthumb 18.2927 5.90538
rfemur 7.71908 6.12931 29.412
rtibia 11.5327
rfoot -21.9501 2.17649
rtoes -15.9413
lfemur -46.0004 3.60069 -9.32208
ltibia 20.9082
lfoot -12.3415 13.145
ltoes -9.91701
23
root 7.66266 15.6058 -30.7296 9.24636 -7.61451 -6.43209
lowerback -3.39803 3.27909 2.15111
upperback -0.0249919 4.22172 3.50578
thorax 1.76678 2.11343 2.60412
lowerneck -20.4119 -5.18041 -14.021
upperneck 15.7801 -5.93371 14.4191
head 9.20309 -2.15067 6.54157
rclavicle -2.94201e-014 -3.97569e-015
rhumerus -23.7212 26.94 -81.3213
rradius 56.7055
rwrist -28.7773
rhand -32.91 -27.7245
rfingers 7.12502
rthumb -6.12729 -57.6159
lclavicle -2.94201e-014 -3.97569e-015
lhumerus -59.0265 -5.26893 92.3382
lradius 31.8758
lwrist 9.79961
lhand -7.57156 -22.9228
lfingers 7.12502
lthumb 18.321 6.23445
rfemur 9.67098 6.49561 29.7447
rtibia 9.17133
rfoot -20.7445 1.90196
rtoes -17.0738
lfemur -46.2148 3.40743 -8.19433
ltibia 20.554
lfoot -12.294 13.5961
ltoes -11.0056
24
root 7.6868 15.5766 -30.5189 9.36047 -7.85072 -6.6268
lowerback -3.52757 3.35301 2.28554
upperback -0.0170395 4.30781 3.53034
thorax 1.85312 2.15723 2.56827
lowerneck -20.6412 -5.24782 -13.8372
upperneck 16.0266 -6.05828 14.3233
head 9.33924 -2.19832 6.46448
rclavicle -3.35946e-014 -4.77083e-015
rhumerus -23.6436 27.0664 -81.43
rradius 56.9218
rwrist -29.0841
rhand -32.8986 -26.6672
rfingers 7.12502
rthumb -6.11628 -56.5589
lclavicle -3.35946e-014 -4.77083e-015
lhumerus -59.0984 -4.18649 91.3414
lradius 31.1379
lwrist 8.59631
lhand -7.8787 -22.7884
lfingers 7.12502
lthumb 18.0256 6.39634
rfemur 11.7929 6.68567 29.8022
rtibia 6.21372
rfoot -19.36 1.44552
rtoes -20.1802
lfemur -46.5275 2.74633 -7.24307
ltibia 20.4576
lfoot -12.6143 14.4828
ltoes -11.4365
25
root 7.70998 15.5485 -30.3048 9.33563 -8.01328 -6.74841
lowerback -3.5105 3.45068 2.38525
upperback 0.0375658 4.43202 3.54515
thorax 1.90294 2.21999 2.53587
lowerneck -20.6532 -5.2012 -13.827
upperneck 15.9858 -6.04635 14.576
head 9.33572 -2.16587 6.55767
rclavicle -9.93923e-016 -1.82882e-014
rhumerus -23.6221 27.0868 -81.4464
rradius 57.2217
rwrist -29.6218
rhand -32.23 -24.2319
rfingers 7.12502
rthumb -5.47082 -54.1413
lclavicle -9.93923e-016 -1.82882e-014
lhumerus -58.8692 -3.05836 90.2423
lradius 29.9547
lwrist 7.21169
lhand -8.18752 -22.7405
lfingers 7.12502
lthumb 17.7284 6.47132
rfemur 14.9981 6.77254 29.826
rtibia 1.39239
rfoot -16.8659 1.04637
rtoes -22.0757
lfemur -46.6112 1.78672 -6.26081
ltibia 20.4395
lfoot -13.2943 15.6128
ltoes -10.0143
26
root 7.72905 15.5259 -30.0853 9.32361 -8.37383 -6.74049
lowerback -3.60247 3.58968 2.22574
upperback 0.126569 4.6168 3.52618
thorax 2.03037 2.31093 2.62477
lowerneck -20.7452 -5.18263 -13.7058
upperneck 15.8422 -6.03819 14.6073
head 9.29928 -2.14798 6.54467
rclavicle 9.79014e-015 -1.11319e-014
rhumerus -23.5478 27.1017 -81.443
rradius 57.364
rwrist -30.0577
rhand -31.1211 -21.8764
rfingers 7.12502
rthumb -4.40009 -51.8107
lclavicle 9.79014e-015 -1.11319e-014
lhumerus -58.4952 -2.07381 89.1953
lradius 28.7307
lwrist 6.25011
lhand -8.03348 -22.5975
lfingers 7.12502
lthumb 17.8766 6.60083
rfemur 16.5224 7.05063 29.6277
rtibia -6.36111e-015
rfoot -15.8546 1.0812
rtoes -22.9859
lfemur -46.7341 1.64768 -5.96048
ltibia 20.7541
lfoot -13.6902 16.0217
ltoes -9.25193
27
root 7.75485 15.4941 -29.8615 9.35114 -8.82126 -6.63243
lowerback -3.71258 3.75998 1.96338
upperback 0.131265 4.85108 3.51956
thorax 2.0691 2.42557 2.78364
lowerneck -21.3557 -5.36659 -13.2513
upperneck 16.38 -6.24951 13.8623
head 9.58191 -2.27068 6.17523
rclavicle -7.86193e-014 -1.74931e-014
rhumerus -23.7575 27.1709 -81.439
rradius 57.5378
rwrist -30.3678
rhand -30.0717 -20.2815
rfingers 7.12502
rthumb -3.38666 -50.2343
lclavicle -7.86193e-014 -1.74931e-014
lhumerus -58.2749 -1.19122 88.3473
lradius 27.6622
lwrist 5.44202
lhand -7.80698 -22.5108
lfingers 7.12502
lthumb 18.0946 6.66749
rfemur 17.4416 7.40882 29.3087
rtibia 8.26944e-014
rfoot -15.8982 1.07726
rtoes -25.1905
lfemur -46.7554 2.20274 -6.31871
ltibia 20.9072
lfoot -13.7305 15.8283
ltoes -9.2557
28
root 7.79156 15.4349 -29.6371 9.37876 -9.1012 -6.6363
lowerback -3.81973 3.87872 1.94123
upperback 0.173644 5.00418 3.52149
thorax 2.16575 2.50143 2.81655
lowerneck -20.4461 -5.28562 -13.9644
upperneck 15.4936 -6.17488 14.9261
head 9.17045 -2.20793 6.67435
rclavicle -4.07509e-015 -3.18055e-014
rhumerus -23.8786 27.1794 -81.4519
rradius 57.6655
rwrist -30.5707
rhand -29.5594 -19.3052
rfingers 7.12502
rthumb -2.89192 -49.2654
lclavicle -4.07509e-015 -3.18055e-014
lhumerus -58.1597 -0.486145 87.6825
lradius 26.9005
lwrist 4.65292
lhand -7.9937 -22.1887
lfingers 7.12502
lthumb 17.9149 7.00618
rfemur 18.6662 7.60986 29.1801
rtibia 2.22639e-014
rfoot -16.1192 0.727389
rtoes -28.5346
lfemur -46.9389 2.98481 -6.9077
ltibia 21.3354
lfoot -13.1688 15.3226
ltoes -10.2162
29
root 7.85823 15.4299 -29.4016 9.21342 -7.6418 -6.46841
lowerback -3.77399 3.38693 2.43838
upperback 0.124 4.33208 3.34591
thorax 2.16134 2.1712 2.31857
lowerneck -20.1325 -5.15588 -13.9536
upperneck 15.2639 -6.11006 15.3782
head 9.04447 -2.14494 6.8419
rclavicle 3.12092e-014 1.39149e-014
rhumerus -24.051 27.0174 -81.8096
rradius 57.5551
rwrist -30.45
rhand -29.9302 -19.0951
rfingers 7.12502
rthumb -3.25008 -49.0501
lclavicle 3.12092e-014 1.39149e-014
lhumerus -58.1893 0.372948 86.549
lradius 26.0763
lwrist 3.57623
lhand -7.77305 -21.9058
lfingers 7.12502
lthumb 18.1272 7.26948
rfemur 18.9783 6.15546 28.7487
rtibia -6.04305e-014
rfoot -15.1581 1.43141
rtoes -27.6564
lfemur -47.4522 3.03162 -8.3776
ltibia 21.9967
lfoot -12.1333 13.6944
ltoes -12.4257
